<?xml version="1.0" standalone="no"?>
<!DOCTYPE svg PUBLIC "-//W3C//DTD SVG 20010904//EN"
 "http://www.w3.org/TR/2001/REC-SVG-20010904/DTD/svg10.dtd">
<svg version="1.0" xmlns="http://www.w3.org/2000/svg"
 width="131.000000pt" height="131.000000pt" viewBox="0 0 131.000000 131.000000"
 preserveAspectRatio="xMidYMid meet">
<metadata>
Created by potrace 1.11, written by Peter Selinger 2001-2013
</metadata>
<g transform="translate(0.000000,131.000000) scale(0.100000,-0.100000)"
fill="#000000" stroke="none">
<path d="M495 1043 c-171 -230 -204 -286 -209 -355 -4 -59 12 -100 64 -160 43
-50 44 -53 48 -132 3 -71 7 -84 28 -103 28 -26 19 -25 262 -24 96 1 182 6 193
11 29 16 38 41 40 116 2 79 8 95 55 144 39 42 62 102 57 150 -6 54 -55 147
-122 235 -35 44 -105 137 -158 208 -52 70 -96 127 -97 126 0 0 -73 -98 -161
-216z m295 -13 c30 -35 81 -93 112 -129 93 -107 131 -205 108 -275 -6 -20 -32
-60 -56 -88 -24 -29 -45 -59 -45 -67 -1 -9 -3 -45 -4 -81 -5 -100 -5 -100
-249 -100 -242 1 -238 -1 -243 98 -5 95 -8 105 -47 147 -52 57 -69 99 -63 156
11 87 49 143 271 392 34 38 65 76 70 85 10 17 24 3 146 -138z"/>
<path d="M555 986 c-10 -14 -43 -37 -72 -52 -30 -15 -62 -38 -73 -53 -11 -14
-24 -31 -29 -37 -14 -17 -31 -53 -30 -61 1 -4 0 -15 -4 -23 -13 -34 -14 -46
-5 -64 8 -14 7 -17 -3 -11 -9 6 -10 2 -5 -16 4 -13 9 -35 12 -49 8 -42 27 -70
51 -76 18 -5 22 -11 17 -26 -8 -27 41 -70 87 -75 33 -4 39 -1 52 22 l14 27 23
-37 c17 -28 21 -42 13 -54 -40 -64 -39 -61 -23 -71 37 -24 82 -29 121 -13 44
17 48 32 19 74 l-21 28 23 35 23 35 21 -26 c18 -23 25 -25 62 -18 25 4 42 12
42 20 0 8 9 16 20 20 15 5 17 10 10 30 -7 20 -5 24 15 29 14 4 32 17 40 30 19
29 32 171 16 181 -6 3 -11 17 -11 31 0 13 -9 33 -19 43 -10 10 -22 28 -26 40
-3 12 -37 39 -76 62 -38 22 -75 49 -82 60 -6 10 -15 19 -18 19 -16 0 6 -42 47
-90 60 -70 62 -115 8 -197 -19 -29 -34 -60 -34 -68 0 -24 -17 -17 -24 10 -4
14 -18 50 -33 81 -21 44 -30 54 -47 52 -13 -2 -20 -10 -20 -20 1 -10 -3 -16
-8 -15 -5 1 -21 -27 -35 -62 -22 -54 -28 -61 -34 -43 -4 11 -21 39 -38 62 -55
77 -53 133 9 201 38 42 57 76 47 85 -2 2 -12 -7 -22 -20z m-89 -176 c1 -25 12
-55 31 -82 47 -70 46 -68 20 -68 -42 0 -78 85 -69 163 5 40 17 33 18 -13z
m400 -38 c-4 -60 -30 -105 -65 -110 -29 -5 -27 5 14 62 26 37 35 60 35 90 0
29 3 37 10 26 5 -8 7 -38 6 -68z m-448 -23 c-3 -8 -7 -3 -11 10 -4 17 -3 21 5
13 5 -5 8 -16 6 -23z m-14 -41 c21 -41 22 -47 7 -28 -19 23 -45 80 -37 80 2 0
16 -24 30 -52z m523 5 c-8 -15 -25 -37 -38 -48 -19 -17 -19 -14 4 13 15 19 30
46 34 60 3 15 8 22 10 15 2 -6 -2 -24 -10 -40z m-291 -42 c-9 -9 -17 -26 -19
-37 -1 -10 -6 -25 -10 -31 -5 -7 -4 -13 2 -13 6 0 13 11 17 25 3 14 10 25 14
25 12 0 9 -53 -3 -69 -6 -7 -16 -23 -22 -34 -6 -12 -18 -23 -28 -25 -24 -5
-33 25 -13 47 13 14 16 28 11 55 -6 29 -4 36 9 36 9 0 16 5 16 11 0 5 -4 8
-10 4 -5 -3 -4 8 2 27 15 46 22 50 14 8 -5 -26 -4 -31 3 -20 6 8 11 24 11 36
0 35 15 38 18 4 2 -19 -3 -39 -12 -49z m48 66 c-2 -7 2 -30 11 -50 18 -43 30
-51 14 -9 -8 22 -8 25 3 14 7 -7 14 -36 15 -65 3 -66 4 -69 13 -32 6 23 7 18
6 -25 -1 -43 -5 -55 -18 -58 -12 -2 -22 8 -32 32 -8 20 -19 36 -23 36 -4 0 -8
14 -8 30 0 37 12 39 26 4 5 -15 12 -25 14 -22 7 7 -15 71 -29 83 -6 6 -10 21
-10 35 2 37 3 40 14 40 5 0 7 -6 4 -13z m265 -54 c-19 -25 -62 -62 -73 -63 -5
0 4 10 20 22 16 12 35 30 42 40 7 10 16 18 19 18 3 0 -1 -8 -8 -17z m-509 -60
c0 -7 -56 35 -71 54 -8 9 5 2 29 -17 23 -18 42 -35 42 -37z m-10 -28 c0 -11
-19 -4 -41 15 l-24 21 33 -16 c17 -8 32 -18 32 -20z m117 -21 c0 -27 4 -56 7
-64 10 -26 -17 -48 -54 -46 -21 2 -34 7 -32 14 1 7 -4 12 -12 12 -21 0 -30 19
-16 35 7 8 7 15 1 19 -16 10 -1 36 20 36 10 0 19 6 19 13 0 20 18 34 43 32 19
-1 22 -8 24 -51z m276 42 c9 -7 17 -18 17 -23 0 -6 8 -13 19 -16 14 -3 18 -14
18 -46 0 -28 -4 -41 -13 -41 -8 0 -14 -6 -14 -13 0 -18 -68 -16 -79 2 -10 16
-8 122 3 139 9 15 26 15 49 -2z m112 2 c-3 -7 -16 -18 -29 -24 -19 -9 -23 -9
-20 1 4 10 32 28 51 34 1 1 0 -5 -2 -11z m-368 -35 c-3 -10 -5 -4 -5 12 0 17
2 24 5 18 2 -7 2 -21 0 -30z m-164 -17 c4 -10 1 -13 -9 -9 -15 6 -19 23 -5 23
5 0 11 -7 14 -14z m537 9 c0 -2 -10 -10 -22 -16 -21 -11 -22 -11 -9 4 13 16
31 23 31 12z m-256 -23 c3 -5 -2 -19 -10 -30 -14 -20 -17 -21 -31 -7 -8 9 -12
22 -9 30 6 16 41 21 50 7z m-24 -72 c4 0 10 9 13 21 5 18 8 19 29 7 13 -7 25
-14 27 -15 2 -1 -7 -18 -19 -39 -22 -34 -22 -38 -7 -64 22 -36 21 -51 0 -43
-11 5 -14 3 -8 -6 5 -10 2 -11 -14 -6 -14 4 -21 2 -22 -7 0 -7 -4 -4 -9 7 -5
11 -9 14 -9 8 -1 -7 -6 -13 -12 -13 -5 0 -7 5 -3 11 4 8 0 9 -15 4 -26 -8 -26
-1 0 41 l21 34 -21 26 c-26 32 -26 43 -3 60 14 11 19 11 31 -6 7 -11 17 -20
21 -20z"/>
<path d="M158 601 c-16 -18 -28 -39 -28 -47 0 -19 -19 -18 -26 1 -4 8 -11 15
-16 15 -7 0 -9 -20 -5 -55 5 -48 3 -57 -16 -70 l-22 -15 20 -38 c11 -20 56
-73 100 -117 130 -130 271 -193 455 -202 202 -10 371 52 517 190 59 55 123
137 123 157 0 6 -9 19 -20 28 -16 14 -18 23 -12 52 5 19 6 46 3 59 l-6 23 -14
-26 -14 -26 -29 51 c-16 28 -32 48 -35 46 -3 -3 -7 -23 -10 -44 -7 -52 -30
-99 -61 -124 -26 -20 -26 -20 -4 -26 12 -3 22 -9 22 -13 0 -17 -115 -110 -170
-138 -105 -54 -248 -76 -357 -56 -50 9 -166 57 -206 86 -18 12 -51 40 -75 62
l-43 40 23 17 c20 16 21 18 6 24 -28 11 -60 72 -67 127 l-6 52 -27 -33z m44
-105 c19 -38 19 -39 1 -25 -10 8 -21 18 -24 22 -4 5 -20 2 -36 -7 -35 -17 -43
-13 -43 23 1 23 2 24 11 9 12 -22 29 -23 29 -4 0 8 5 27 11 43 l11 28 11 -25
c5 -14 19 -43 29 -64z m968 33 c0 -27 19 -33 36 -13 14 18 15 17 9 -11 -9 -40
-10 -40 -41 -21 -25 17 -27 17 -48 -3 -34 -32 -36 -26 -10 26 13 25 24 54 24
62 1 23 30 -17 30 -40z m-972 -93 c31 -41 35 -76 10 -76 -6 0 -6 6 1 14 14 17
-2 31 -24 22 -9 -3 -15 1 -15 9 0 9 6 12 18 8 16 -5 16 -5 0 12 -16 18 -46 16
-77 -4 -15 -10 -11 -19 34 -75 15 -20 15 -20 30 0 17 22 20 12 4 -14 -9 -14
-3 -25 33 -63 25 -25 49 -44 55 -42 5 2 18 -6 28 -17 21 -24 35 -26 35 -5 0 8
6 12 14 9 8 -3 13 -11 10 -18 -3 -7 1 -17 8 -23 20 -16 138 -54 148 -48 4 3
10 -1 12 -7 3 -9 26 -13 66 -14 l62 -1 0 43 0 42 -56 1 c-56 0 -122 18 -178
49 -22 11 -31 12 -34 4 -2 -7 -10 -12 -19 -12 -9 0 -12 6 -9 18 5 13 -6 27
-39 50 -25 18 -50 32 -56 32 -6 0 -8 4 -4 9 3 6 -3 14 -12 20 -10 5 -15 13
-11 17 4 4 20 -6 35 -21 92 -93 244 -153 387 -153 205 0 370 93 491 276 4 6
88 -44 92 -55 3 -7 -11 -34 -30 -60 -195 -263 -556 -350 -856 -204 -84 40
-117 65 -189 138 -62 64 -99 119 -87 131 7 8 78 50 85 51 3 0 20 -19 38 -43z
m42 -120 c0 -2 -8 -10 -17 -17 -16 -13 -17 -12 -4 4 13 16 21 21 21 13z m50
-15 c0 -6 -5 -13 -10 -16 -6 -4 -8 -10 -5 -15 3 -4 -4 -6 -14 -3 -18 5 -18 6
-3 24 18 20 32 25 32 10z m38 -67 c-7 -15 -14 -21 -16 -15 -2 7 2 18 8 26 18
22 21 18 8 -11z m102 -22 c0 -4 -9 -8 -19 -8 -15 0 -17 3 -9 13 10 12 28 9 28
-5z m32 -24 c-7 -7 -12 -8 -12 -2 0 14 12 26 19 19 2 -3 -1 -11 -7 -17z m106
-25 c-3 -18 -17 -33 -31 -33 -5 0 -5 6 0 13 4 6 8 15 9 20 3 15 4 17 14 17 6
0 10 -8 8 -17z m-108 3 c0 -3 -4 -8 -10 -11 -5 -3 -10 -1 -10 4 0 6 5 11 10
11 6 0 10 -2 10 -4z m177 -11 c0 -8 -4 -15 -9 -15 -10 0 -11 14 -1 23 9 10 10
9 10 -8z"/>
<path d="M1120 420 c-13 -19 -19 -38 -15 -48 5 -13 3 -14 -6 -5 -9 9 -22 2
-55 -29 -42 -39 -43 -42 -25 -57 10 -9 16 -22 13 -30 -6 -18 19 -32 35 -19 7
6 10 14 8 18 -3 5 8 17 25 26 l30 18 -28 31 c-26 29 -26 29 -1 7 l26 -22 23
20 c20 17 21 22 9 37 -13 16 -12 17 3 5 14 -12 19 -10 34 13 9 14 15 27 13 28
-2 1 -18 10 -36 20 l-31 17 -22 -30z m66 -21 c3 -6 -5 -3 -20 6 -14 10 -26 19
-26 22 0 7 39 -17 46 -28z m-101 -89 c10 -11 16 -20 13 -20 -3 0 -13 9 -23 20
-10 11 -16 20 -13 20 3 0 13 -9 23 -20z"/>
<path d="M945 262 c-82 -43 -164 -70 -228 -75 -33 -3 -48 -24 -42 -57 2 -12 6
-24 7 -25 8 -6 148 20 148 28 0 4 8 6 19 2 29 -9 37 25 11 45 -21 16 -21 16 0
17 11 1 20 -4 20 -10 0 -21 17 -40 29 -33 8 5 6 16 -4 37 -9 16 -11 29 -5 29
5 0 10 -7 10 -15 0 -8 5 -15 10 -15 6 0 9 -3 9 -7 -3 -21 3 -22 31 -8 17 9 28
20 25 25 -3 6 0 7 8 4 8 -3 18 -1 22 5 3 6 -1 11 -9 11 -10 0 -16 9 -16 24 0
33 -10 37 -45 18z m-5 -32 c0 -5 -2 -10 -4 -10 -3 0 -8 5 -11 10 -3 6 -1 10 4
10 6 0 11 -4 11 -10z m15 -30 c3 -5 1 -10 -4 -10 -6 0 -11 5 -11 10 0 6 2 10
4 10 3 0 8 -4 11 -10z"/>
</g>
</svg>
